<?xml version="1.0" standalone="no"?>
<svg xmlns:xlink="http://www.w3.org/1999/xlink" id="wave" style="transform:rotate(180deg); transition: 0.3s" viewBox="0 0 1440 100" version="1.1" xmlns="http://www.w3.org/2000/svg"><defs><linearGradient id="sw-gradient-0" x1="0" x2="0" y1="1" y2="0"><stop stop-color="rgba(186, 215, 224, 1)" offset="0%"/><stop stop-color="rgba(186, 215, 224, 1)" offset="100%"/></linearGradient></defs><path style="transform:translate(0, 0px); opacity:1" fill="url(#sw-gradient-0)" d="M0,80L20,75C40,70,80,60,120,55C160,50,200,50,240,48.3C280,47,320,43,360,41.7C400,40,440,40,480,35C520,30,560,20,600,23.3C640,27,680,43,720,48.3C760,53,800,47,840,45C880,43,920,47,960,53.3C1000,60,1040,70,1080,65C1120,60,1160,40,1200,31.7C1240,23,1280,27,1320,36.7C1360,47,1400,63,1440,61.7C1480,60,1520,40,1560,33.3C1600,27,1640,33,1680,30C1720,27,1760,13,1800,11.7C1840,10,1880,20,1920,23.3C1960,27,2000,23,2040,26.7C2080,30,2120,40,2160,38.3C2200,37,2240,23,2280,28.3C2320,33,2360,57,2400,58.3C2440,60,2480,40,2520,35C2560,30,2600,40,2640,36.7C2680,33,2720,17,2760,16.7C2800,17,2840,33,2860,41.7L2880,50L2880,100L2860,100C2840,100,2800,100,2760,100C2720,100,2680,100,2640,100C2600,100,2560,100,2520,100C2480,100,2440,100,2400,100C2360,100,2320,100,2280,100C2240,100,2200,100,2160,100C2120,100,2080,100,2040,100C2000,100,1960,100,1920,100C1880,100,1840,100,1800,100C1760,100,1720,100,1680,100C1640,100,1600,100,1560,100C1520,100,1480,100,1440,100C1400,100,1360,100,1320,100C1280,100,1240,100,1200,100C1160,100,1120,100,1080,100C1040,100,1000,100,960,100C920,100,880,100,840,100C800,100,760,100,720,100C680,100,640,100,600,100C560,100,520,100,480,100C440,100,400,100,360,100C320,100,280,100,240,100C200,100,160,100,120,100C80,100,40,100,20,100L0,100Z"/></svg>